<svg xmlns="http://www.w3.org/2000/svg" width="123.755" height="67.503" viewBox="0 0 123.755 67.503"><defs><style>.a{fill:#374656;}</style></defs><path class="a" d="M205.014,187.306v11.776h6.327v-1.751h-4.182V187.306Z" transform="translate(-163.662 -131.651)"/><rect class="a" width="2.144" height="11.776" transform="translate(52.849 55.655)"/><path class="a" d="M247.511,187.306l-2.447,6.38c-.376.946-.645,1.733-.877,2.413h-.035c-.249-.7-.519-1.483-.858-2.395l-2.465-6.4h-2.34l4.805,11.848h1.733l4.807-11.848Z" transform="translate(-178.706 -131.651)"/><path class="a" d="M266.555,187.306v11.776h6.524v-1.751H268.7v-3.378h3.771V192.2H268.7v-3.146h3.786l.574-1.751Z" transform="translate(-190.854 -131.651)"/><path class="a" d="M232.072,151.766a.5.5,0,0,1-.081.29.635.635,0,0,1-.261.2,1.77,1.77,0,0,1-.5.129,6.47,6.47,0,0,1-.825.043,6.276,6.276,0,0,1-.805-.043,1.9,1.9,0,0,1-.512-.129.557.557,0,0,1-.262-.2.566.566,0,0,1-.07-.29v-28.71a.629.629,0,0,1,.07-.3.533.533,0,0,1,.262-.216,1.945,1.945,0,0,1,.512-.128,6.058,6.058,0,0,1,.805-.043,6.248,6.248,0,0,1,.825.043,1.815,1.815,0,0,1,.5.128.6.6,0,0,1,.261.216.559.559,0,0,1,.081.3Z" transform="translate(-174.011 -103.406)"/><path class="a" d="M260.047,148.228a13.794,13.794,0,0,1-.638,4.284,9.376,9.376,0,0,1-1.9,3.375,8.646,8.646,0,0,1-3.169,2.211,11.4,11.4,0,0,1-4.412.793,11.832,11.832,0,0,1-4.258-.7,7.8,7.8,0,0,1-3.028-2.032,8.522,8.522,0,0,1-1.8-3.236,14.482,14.482,0,0,1-.6-4.316,14.01,14.01,0,0,1,.627-4.284,9.228,9.228,0,0,1,1.893-3.374,8.541,8.541,0,0,1,3.158-2.2,11.536,11.536,0,0,1,4.423-.783,11.825,11.825,0,0,1,4.259.7,7.8,7.8,0,0,1,3.025,2.03,8.679,8.679,0,0,1,1.816,3.237,14.169,14.169,0,0,1,.6,4.294m-3.762.233a13.724,13.724,0,0,0-.3-2.919A7.063,7.063,0,0,0,255,143.13a4.848,4.848,0,0,0-1.866-1.64,6.4,6.4,0,0,0-2.931-.6,6.471,6.471,0,0,0-2.786.549,5.058,5.058,0,0,0-1.923,1.554,6.838,6.838,0,0,0-1.121,2.38,11.637,11.637,0,0,0-.366,3,13.707,13.707,0,0,0,.3,2.941,6.761,6.761,0,0,0,1,2.4,4.942,4.942,0,0,0,1.876,1.629,6.383,6.383,0,0,0,2.931.6,6.5,6.5,0,0,0,2.776-.55,5.1,5.1,0,0,0,1.932-1.544,6.609,6.609,0,0,0,1.109-2.369,12.133,12.133,0,0,0,.356-3.025" transform="translate(-179.982 -110.015)"/><path class="a" d="M214.887,123.754a7.1,7.1,0,0,0-3.122-1.709,8.216,8.216,0,0,0-6.328.64h0a4.481,4.481,0,0,0-1.191,1.01,6.01,6.01,0,0,0-1.147,2.38,14.162,14.162,0,0,0-.373,3.481v2h-3.221a.6.6,0,0,0-.3.074.566.566,0,0,0-.214.259,1.731,1.731,0,0,0-.128.463,4.593,4.593,0,0,0-.044.69,2.687,2.687,0,0,0,.172,1.12.551.551,0,0,0,.515.345h3.221v17a.468.468,0,0,0,.085.29.65.65,0,0,0,.288.2,2.163,2.163,0,0,0,.546.129,8.5,8.5,0,0,0,1.714,0,2.111,2.111,0,0,0,.546-.129.647.647,0,0,0,.289-.2.473.473,0,0,0,.087-.29v-17h5.553a.579.579,0,0,0,.515-.345,2.423,2.423,0,0,0,.192-1.12,3.814,3.814,0,0,0-.052-.69,1.778,1.778,0,0,0-.151-.463.665.665,0,0,0-.214-.259.537.537,0,0,0-.29-.074h-5.553v-2.112a12.893,12.893,0,0,1,.148-2.122,3.968,3.968,0,0,1,.493-1.422,2.079,2.079,0,0,1,.9-.809,3.22,3.22,0,0,1,1.351-.258,4.749,4.749,0,0,1,1.016.1,5.928,5.928,0,0,1,.762.216c.093.034.176.066.256.1l.6.265c1.571.954,2.059.487,2.059.487l1.093-1.272c.3-.417-.074-.973-.074-.973" transform="translate(-161.266 -103.117)"/><path class="a" d="M274.07,165.472a2.954,2.954,0,1,0,2.955-2.955,2.953,2.953,0,0,0-2.955,2.955" transform="translate(-194.133 -120.01)"/><path class="a" d="M224.5,148.654h30.212V85.937H130.953v62.717h30.233v-2.107H133.079v-58.5h119.5v58.5H224.5Z" transform="translate(-130.953 -85.937)"/></svg>